[img]http://img46.imageshack.us/img46/8918/superbad2007.jpg[/img]

[b][size=200][color=black]PLOT[/color][/size][/b]

[code]Two co-dependent high school seniors are forced to deal with separation 
anxiety after their plan to stage a booze-soaked party goes awry.[/code]

[b][size=200][color=black]IMDB[/color][/size][/b]

[code]http://www.imdb.com/title/tt0829482/[/code]

[b][size=200][color=black]MOVIE INFO[/color][/size][/b]

[code]Superbad [2007] [Unrated] BRRip x264 AAC-V3nom

Format                                   : MPEG-4
Format profile                           : Base Media / Version 2
Codec ID                                 : mp42
File size                                : 350 MiB
Duration                                 : 1h 58mn
Overall bit rate mode                    : Variable
Overall bit rate                         : 413 Kbps
Encoded date                             : UTC 2013-02-07 14:16:31
Tagged date                              : UTC 2013-02-07 15:11:45

Video
ID                                       : 1
Format                                   : AVC
Format/Info                              : Advanced Video Codec
Format profile                           : Main@L2.1
Format settings, CABAC                   : Yes
Format settings, ReFrames                : 4 frames
Codec ID                                 : avc1
Codec ID/Info                            : Advanced Video Coding
Duration                                 : 1h 58mn
Bit rate mode                            : Variable
Bit rate                                 : 312 Kbps
Width                                    : 640 pixels
Height                                   : 256 pixels
Display aspect ratio                     : 1.85:1
Frame rate mode                          : Variable
Frame rate                               : 23.976 fps
Minimum frame rate                       : 5.994 fps
Maximum frame rate                       : 23.981 fps
Color space                              : YUV
Chroma subsampling                       : 4:2:0
Bit depth                                : 8 bits
Scan type                                : Progressive
Bits/(Pixel*Frame)                       : 0.079
Stream size                              : 265 MiB (76%)
Writing library                          : x264 core 112

Audio
ID                                       : 2
Format                                   : AAC
Format/Info                              : Advanced Audio Codec
Format profile                           : LC
Codec ID                                 : 40
Duration                                 : 1h 58mn
Bit rate mode                            : Variable
Bit rate                                 : 96.0 Kbps
Maximum bit rate                         : 169 Kbps
Channel(s)                               : 2 channels
Channel positions                        : Front: L R
Sampling rate                            : 48.0 KHz
Compression mode                         : Lossy
Delay relative to video                  : 209ms
Stream size                              : 81.4 MiB (23%)
Encoded date                             : UTC 2013-02-07 14:16:31
Tagged date                              : UTC 2013-02-07 15:11:39[/code]

[b][size=200][color=black]SOURCE[/color][/size][/b]

[code]Superbad Unrated (2007) 720p BrRip x264 - 700mb - YIFY(Thanks)[/code]

[b][size=200][color=black]SCREENSHOTS[/color][/size][/b]

[img]http://img829.imageshack.us/img829/4189/superbad2007unratedbrri.jpg[/img]

[img]http://kastatic.com/i2/users/133df62bbf28e62494bb17fe11078f1a.gif[/img][img]http://kastatic.com/i2/users/133df62bbf28e62494bb17fe11078f1a.gif[/img]